<svg t="1658032874625" class="icon" viewBox="0 0 1024 1024" version="1.1" xmlns="http://www.w3.org/2000/svg" p-id="11887" width="200" height="200"><path d="M373.930667 128a85.333333 85.333333 0 0 1 76.330666 47.189333L490.666667 256H896a85.333333 85.333333 0 0 1 85.333333 85.333333v284.672a193.066667 193.066667 0 0 0-42.666666-38.997333V341.333333a42.666667 42.666667 0 0 0-37.674667-42.368L896 298.666667H85.333333v512a42.666667 42.666667 0 0 0 37.674667 42.368L128 853.333333h544.341333c10.794667 16.128 23.978667 30.549333 38.997334 42.666667H128a85.333333 85.333333 0 0 1-85.333333-85.333333V213.333333a85.333333 85.333333 0 0 1 85.333333-85.333333h245.930667zM832 597.333333a21.333333 21.333333 0 0 1 20.992 17.493334l0.341333 3.84V725.333333h106.666667a21.333333 21.333333 0 0 1 3.84 42.325334L960 768H853.333333v106.666667a21.333333 21.333333 0 0 1-42.325333 3.84L810.666667 874.666667V768h-106.666667a21.333333 21.333333 0 0 1-3.84-42.325333L704 725.333333H810.666667v-106.666666a21.333333 21.333333 0 0 1 21.333333-21.333334zM373.930667 170.666667H128a42.666667 42.666667 0 0 0-42.368 37.674666L85.333333 213.333333v42.666667h357.632l-30.890666-61.738667a42.666667 42.666667 0 0 0-32.853334-23.253333L373.973333 170.666667z" p-id="11888"></path></svg>
