<svg t="1658026455253" class="icon" viewBox="0 0 1024 1024" version="1.1" xmlns="http://www.w3.org/2000/svg" p-id="6752" width="200" height="200"><path d="M805.301046 889.884466l-586.354452 0c-32.058137 0-62.044078-15.005762-84.436064-42.253336-21.720697-26.429952-33.682124-61.412698-33.682124-98.502431l0-271.63663c0-8.477069 6.872524-15.349593 15.349593-15.349593s15.349593 6.872524 15.349593 15.349593l0 271.63663c0 60.685127 39.216163 110.056582 87.419002 110.056582l586.354452 0c47.720861 0 86.543052-49.371454 86.543052-110.056582l0-271.63663c0-8.477069 6.872524-15.349593 15.349593-15.349593s15.349593 6.872524 15.349593 15.349593l0 271.63663c0 37.123502-11.786441 72.080665-33.187867 98.432847C867.190605 874.854145 837.338716 889.884466 805.301046 889.884466z" p-id="6753"></path><path d="M527.547091 683.539888c0 10.753925-6.581905 19.47147-15.349593 19.47147l0 0c-8.767688 0-15.349593-8.717546-15.349593-19.47147L496.847905 148.069337c0-10.753925 6.581905-19.47147 15.349593-19.47147l0 0c8.767688 0 15.349593 8.717546 15.349593 19.47147L527.547091 683.539888z" p-id="6754"></path><path d="M511.799432 753.735623c-30.135344 0-60.270688-11.471262-83.21219-34.412764L304.129672 594.865289c-5.994528-5.993504-5.994528-15.712867 0-21.707394 5.993504-5.994528 15.712867-5.994528 21.707394 0l124.45757 124.45757c33.913391 33.912367 89.094154 33.914414 123.009591 0l124.45757-124.45757c5.993504-5.993504 15.712867-5.993504 21.707394 0 5.994528 5.993504 5.994528 15.712867 0 21.707394L595.010599 719.322859C572.069097 742.264361 541.933753 753.735623 511.799432 753.735623z" p-id="6755"></path></svg>
