<svg t="1658024109715" class="icon" viewBox="0 0 1024 1024" version="1.1" xmlns="http://www.w3.org/2000/svg" p-id="3234" width="200" height="200"><path d="M646.4 938.666667H224C147.2 938.666667 85.333333 876.8 85.333333 800V377.6c0-76.8 61.866667-138.666667 138.666667-138.666667h422.4c76.8 0 138.666667 61.866667 138.666667 138.666667v422.4c0 76.8-61.866667 138.666667-138.666667 138.666667zM224 302.933333c-40.533333 0-74.666667 34.133333-74.666667 74.666667v422.4c0 40.533333 34.133333 74.666667 74.666667 74.666667h422.4c40.533333 0 74.666667-34.133333 74.666667-74.666667V377.6c0-40.533333-34.133333-74.666667-74.666667-74.666667H224z" p-id="3235"></path><path d="M793.6 785.066667c-17.066667 0-32-14.933333-32-32s14.933333-32 32-32c44.8 0 81.066667-36.266667 81.066667-81.066667V224c0-42.666667-32-74.666667-74.666667-74.666667H386.133333c-44.8 0-81.066667 36.266667-81.066666 81.066667 0 17.066667-14.933333 32-32 32s-32-14.933333-32-32C238.933333 149.333333 305.066667 85.333333 386.133333 85.333333h416c76.8 0 138.666667 61.866667 138.666667 138.666667V640c-2.133333 78.933333-66.133333 145.066667-147.2 145.066667z" p-id="3236"></path></svg>
