<svg class="HeaderSection-platformIcon HeaderSection-platformIcon--pc" viewBox="0 0 210 45" ><title id="pcSvgTitle"></title>
		<path d="M80,23.07L73.21,9.48c-0.34-0.65-1.02-1.07-1.75-1.07h-3.53
			c-0.73,0-1.41,0.42-1.75,1.07l-6.75,13.59c-0.13,0.24,0.05,0.52,0.31,0.52h3.04c0.21,0,0.37-0.1,0.45-0.26l1.49-2.98h10.03
			l1.49,2.98c0.08,0.18,0.24,0.26,0.45,0.26h3.04C79.94,23.59,80.1,23.3,80,23.07z M66.17,17.34L69,11.65
			c0.08-0.13,0.21-0.21,0.34-0.21h0.71c0.16,0,0.29,0.08,0.34,0.21l2.83,5.68H66.17z M208.88,8.78v2.3c0,0.18-0.16,0.37-0.37,0.37
			h-6.13v13.77c0,0.22-0.26,0.34-0.43,0.2l-3.05-2.59c-0.23-0.2-0.37-0.49-0.37-0.8V11.45h-4.87c-0.26,0-0.52-0.16-0.65-0.42
			l-1.18-2.36c-0.05-0.13,0.03-0.26,0.16-0.26h16.49C208.7,8.41,208.88,8.59,208.88,8.78z M176.03,11.71v2.8h11.18
			c0.84,0,1.52,0.68,1.52,1.52c0,0.84-0.68,1.52-1.52,1.52h-11.18v2.09c0,0.52,0.45,0.97,0.97,0.97h12.59c0.18,0,0.37,0.16,0.37,0.37
			v2.3c0,0.18-0.18,0.37-0.37,0.37h-13.61c-2.15,0-3.87-1.75-3.87-3.87v-9.4c0-1.07,0.86-1.94,1.94-1.94h15.55
			c0.18,0,0.37,0.16,0.37,0.37v2.3c0,0.18-0.18,0.37-0.37,0.37h-13.33C176.13,11.44,176.03,11.55,176.03,11.71z M168.83,8.88V22.2
			c0,1.6-1.86,2.49-3.12,1.44l-11.76-9.97v9.48c0,0.26-0.21,0.47-0.47,0.47h-2.96c-0.26,0-0.5-0.21-0.5-0.47V9.85
			c0-1.6,1.86-2.49,3.12-1.44l11.76,9.97V8.91c0-0.26,0.21-0.5,0.47-0.5h2.96C168.64,8.41,168.83,8.64,168.83,8.88z M147.52,16
			c0,1.05-0.84,1.91-1.91,1.91c-1.05,0-1.91-0.84-1.91-1.91c0-1.05,0.84-1.91,1.91-1.91C146.68,14.09,147.52,14.95,147.52,16z
			M132.2,11.71v2.8h7.78c0.84,0,1.52,0.68,1.52,1.52c0,0.84-0.68,1.52-1.52,1.52h-7.78v2.09c0,0.52,0.45,0.97,0.97,0.97h12.59
			c0.18,0,0.37,0.16,0.37,0.37v2.3c0,0.18-0.16,0.37-0.37,0.37h-13.61c-2.15,0-3.87-1.75-3.87-3.87v-9.4c0-1.07,0.86-1.94,1.94-1.94
			h15.55c0.18,0,0.37,0.16,0.37,0.37v2.3c0,0.18-0.16,0.37-0.37,0.37h-13.33C132.3,11.44,132.2,11.55,132.2,11.71z M126.65,20.92v2.3
			c0,0.18-0.16,0.37-0.37,0.37h-10.94c-2.15,0-3.87-1.75-3.87-3.87V8.77c0-0.18,0.16-0.37,0.37-0.37h3.22c0.18,0,0.37,0.16,0.37,0.37
			v10.81c0,0.52,0.45,0.97,0.97,0.97h9.9C126.49,20.56,126.65,20.74,126.65,20.92z M109.4,8.78v2.3c0,0.18-0.16,0.37-0.37,0.37h-5.71
			v13.77c0,0.22-0.26,0.34-0.43,0.2l-3.07-2.61c-0.23-0.2-0.37-0.49-0.37-0.8V11.42h-3.72c-0.26,0-0.52-0.16-0.65-0.42L93.9,8.64
			c-0.05-0.1,0.03-0.24,0.18-0.24h14.95C109.21,8.41,109.4,8.57,109.4,8.78z M55.23,15.84c0.71-0.26,2.15-0.94,2.15-2.88
			c0-3.32-2.46-4.56-5.42-4.56H40.67c-0.18,0-0.37,0.16-0.37,0.37v14.45c0,0.18,0.16,0.37,0.37,0.37H53.4
			c1.86-0.03,4.53-1.07,4.53-4.5C57.93,16.94,56.01,16.05,55.23,15.84z M44.18,11.68c0-0.16,0.1-0.24,0.24-0.24h6.96
			c0.73,0,2.33,0,2.33,1.52s-1.62,1.52-2.33,1.52h-7.2V11.68z M52.24,20.53h-7.83c-0.16,0-0.24-0.1-0.24-0.24v-2.78h8.06
			c0.79,0,2.04,0,2.04,1.52C54.29,20.58,52.85,20.53,52.24,20.53z M92.01,8.78v2.3c0,0.18-0.16,0.37-0.37,0.37h-4.48v13.77
			c0,0.22-0.26,0.34-0.43,0.2l-3.07-2.61c-0.23-0.2-0.37-0.49-0.37-0.8V11.42h-4.84c-0.26,0-0.52-0.16-0.65-0.42l-1.18-2.36
			c-0.03-0.1,0.05-0.24,0.18-0.24h14.84C91.83,8.41,92.01,8.57,92.01,8.78z M7.21,10.13c0.42,4.59,2.36,10.42,5.59,15.09
			c-1.77,0.69-3.25,0.74-4.06-0.12c-1.12-1.18-1.08-3.2-0.26-5.57c-0.42-1-0.84-2.23-1.11-3.11c-3.39,5.42-4.11,10.48-1.57,12.55
			c1.93,1.57,5.3,1,8.96-1.27c2.07,2.3,4.25,3.78,6.43,4.26c0.12,0.02,0.4,0.06,0.46-0.05c0.05-0.08-0.11-0.17-0.18-0.2
			c-1.94-0.91-3.64-2.52-5.46-4.84c3.77-2.66,7.84-7.25,10.28-12.39c1.48,1.18,2.26,2.44,1.93,3.58c-0.46,1.56-2.23,2.53-4.69,3.01
			c-0.66,0.86-1.51,1.85-2.13,2.51c6.39,0.22,11.14-1.68,11.66-4.91c0.4-2.46-1.78-5.09-5.58-7.12c0.96-2.95,1.15-5.57,0.48-7.7
			c-0.04-0.11-0.15-0.37-0.27-0.37c-0.09,0-0.09,0.18-0.09,0.26c0.19,2.13-0.36,4.41-1.46,7.15c-4.19-1.94-10.2-3.17-15.87-2.71
			c0.28-1.88,0.98-3.18,2.13-3.46c1.58-0.38,3.31,0.66,4.95,2.56c1.08,0.14,2.36,0.39,3.25,0.59c-3-5.64-7.02-8.8-10.08-7.64
			c-2.33,0.89-3.52,4.09-3.38,8.4c-3.03,0.64-5.4,1.79-6.91,3.44c-0.08,0.09-0.25,0.31-0.19,0.42c0.05,0.08,0.2-0.01,0.27-0.05
			C2.04,11.22,4.28,10.55,7.21,10.13z M14.35,24.5c-2.7-4.33-4.26-9.44-4.25-14.6l0,0c5.1-0.17,10.3,1.03,14.77,3.62l0,0
			C22.46,18.02,18.82,21.92,14.35,24.5L14.35,24.5z"></path>
	</svg>
