<svg xmlns:svg="http://www.w3.org/2000/svg" xmlns="http://www.w3.org/2000/svg" id="social-instagram" viewBox="0 0 64 64" width="100%" height="100%">
    <title>Instagram</title>
    <g>
        <path fill="rgba(255,255,255,0.5)" d="M32,16.4c5.1,0,5.7,0,7.7,0.1c1.9,0.1,2.9,0.4,3.5,0.7c0.9,0.3,1.5,0.8,2.2,1.4c0.7,0.7,1.1,1.3,1.4,2.2
            c0.3,0.7,0.6,1.7,0.7,3.5c0.1,2,0.1,2.6,0.1,7.7s0,5.7-0.1,7.7c-0.1,1.9-0.4,2.9-0.7,3.5c-0.3,0.9-0.8,1.5-1.4,2.2
            c-0.7,0.7-1.3,1.1-2.2,1.4c-0.7,0.3-1.7,0.6-3.5,0.7c-2,0.1-2.6,0.1-7.7,0.1s-5.7,0-7.7-0.1c-1.9-0.1-2.9-0.4-3.5-0.7
            c-0.9-0.3-1.5-0.8-2.2-1.4c-0.7-0.7-1.1-1.3-1.4-2.2c-0.3-0.7-0.6-1.7-0.7-3.5c-0.1-2-0.1-2.6-0.1-7.7s0-5.7,0.1-7.7
            c0.1-1.9,0.4-2.9,0.7-3.5c0.3-0.9,0.8-1.5,1.4-2.2c0.7-0.7,1.3-1.1,2.2-1.4c0.7-0.3,1.7-0.6,3.5-0.7C26.3,16.4,26.9,16.4,32,16.4
            M32,13c-5.2,0-5.8,0-7.8,0.1c-2,0.1-3.4,0.4-4.6,0.9c-1.2,0.5-2.3,1.1-3.4,2.2c-1.1,1.1-1.7,2.1-2.2,3.4c-0.5,1.2-0.8,2.6-0.9,4.6
            C13,26.2,13,26.8,13,32c0,5.2,0,5.8,0.1,7.8c0.1,2,0.4,3.4,0.9,4.6c0.5,1.2,1.1,2.3,2.2,3.4c1.1,1.1,2.1,1.7,3.4,2.2
            c1.2,0.5,2.6,0.8,4.6,0.9c2,0.1,2.7,0.1,7.8,0.1s5.8,0,7.8-0.1c2-0.1,3.4-0.4,4.6-0.9c1.2-0.5,2.3-1.1,3.4-2.2
            c1.1-1.1,1.7-2.1,2.2-3.4c0.5-1.2,0.8-2.6,0.9-4.6c0.1-2,0.1-2.7,0.1-7.8s0-5.8-0.1-7.8c-0.1-2-0.4-3.4-0.9-4.6
            c-0.5-1.2-1.1-2.3-2.2-3.4c-1.1-1.1-2.1-1.7-3.4-2.2c-1.2-0.5-2.6-0.8-4.6-0.9C37.8,13,37.2,13,32,13L32,13z"></path>
        <path fill="rgba(255,255,255,0.5)" d="M32,22.2c-5.4,0-9.8,4.4-9.8,9.8s4.4,9.8,9.8,9.8s9.8-4.4,9.8-9.8S37.4,22.2,32,22.2z M32,38.3c-3.5,0-6.3-2.8-6.3-6.3
            s2.8-6.3,6.3-6.3c3.5,0,6.3,2.8,6.3,6.3S35.5,38.3,32,38.3z"></path>
        <circle cx="42.1" cy="21.9" r="2.3"></circle>
    </g>
</svg>
