<svg class="HeaderSection-platformIcon HeaderSection-platformIcon--psn" viewBox="0 0 151 32" preserveAspectRatio="xMinYMin" role="img"><title id="psnSvgTitle">PS4</title>
			<path d="M39.017,31.1a0.113,0.113,0,0,1-.053-0.076c0-.03-0.008-0.073-0.012-0.135l-0.01-.225a0.4,0.4,0,0,0-.061-0.235,0.325,0.325,0,0,0-.1-0.086,0.469,0.469,0,0,0,.13-0.129,0.477,0.477,0,0,0,.069-0.269,0.434,0.434,0,0,0-.256-0.431,0.742,0.742,0,0,0-.328-0.06h-0.8v1.76h0.3V30.491h0.471a0.572,0.572,0,0,1,.187.026,0.2,0.2,0,0,1,.1.191l0.014,0.28c0.006,0.066.008,0.111,0.012,0.138a0.232,0.232,0,0,0,.02.066L38.7,31.213H39.04v-0.1ZM38.6,30.17a0.409,0.409,0,0,1-.227.055h-0.48v-0.5H38.4a0.373,0.373,0,0,1,.167.032,0.212,0.212,0,0,1,.106.21A0.237,0.237,0,0,1,38.6,30.17Zm0.754-.921a1.516,1.516,0,0,0-1.1-.467,1.589,1.589,0,0,0-1.1,2.7,1.532,1.532,0,0,0,2.2,0A1.607,1.607,0,0,0,39.352,29.248Zm-1.1,2.431a1.257,1.257,0,0,1-.913-0.386,1.332,1.332,0,0,1,0-1.859,1.268,1.268,0,0,1,1.824,0A1.32,1.32,0,0,1,38.253,31.679ZM6.675,25.863a7.091,7.091,0,0,0,3.975-.208l3.283-1.213v3.514l-0.653.11a21.165,21.165,0,0,1-10.233-.839C-0.166,26.306-.7,24.388.763,23.281a15.573,15.573,0,0,1,3.658-1.789l9.513-3.442v3.923l-6.846,2.5C5.876,24.91,5.694,25.538,6.675,25.863Zm33.69-1.371a7.615,7.615,0,0,1-2.745,1.753l-14.5,5.3v-3.91L33.79,23.764c1.212-.441,1.4-1.066.415-1.393a7.109,7.109,0,0,0-3.975.207L23.116,25.13V21.072l0.408-.141a24.076,24.076,0,0,1,4.945-1.07,20.8,20.8,0,0,1,9.208,1.119C40.809,21.987,41.16,23.472,40.365,24.492ZM24.5,17.833v-10c0-1.171-.212-2.25-1.3-2.557-0.829-.275-1.342.512-1.342,1.683V32l-6.638-2.145V0a79.212,79.212,0,0,1,9.145,2.548c5.618,1.967,7.523,4.411,7.523,9.917C31.889,17.831,28.634,19.867,24.5,17.833Zm120.3,5.256-4.024,0h0.14a0.14,0.14,0,0,1-.14-0.138V9.675c0-2.039-1.387-2.708-3.332-1.485l-23.354,14.6c-0.918.574-1.226,1.222-1,1.7a1.685,1.685,0,0,0,1.706.7l21.69,0a0.137,0.137,0,0,1,.124.1v1.863a0.139,0.139,0,0,0,.134.143h3.9a0.141,0.141,0,0,0,.136-0.143V25.338a0.141,0.141,0,0,1,.136-0.143h3.888a0.141,0.141,0,0,0,.14-0.141V23.225A0.14,0.14,0,0,0,144.795,23.089Zm-8.19-.149a0.14,0.14,0,0,1-.137.143h-18.18a0.24,0.24,0,0,1-.246-0.093,0.212,0.212,0,0,1,.133-0.226l18.094-11.341a0.205,0.205,0,0,1,.336.186V22.94Zm-59.3-4.755H60.975c-1.508,0-2.562,1.3-2.562,3.156v5.825a0.137,0.137,0,0,1-.136.139H54.394a0.137,0.137,0,0,1-.137-0.139l0-5.825c0-3,1.993-5.265,4.638-5.265H75.931c1.826,0,2.692-1.338,2.692-3.195s-0.868-3.2-2.692-3.2H54.394a0.138,0.138,0,0,1-.138-0.139V7.715a0.137,0.137,0,0,1,.136-0.137H77.308c3.674,0,5.471,2.305,5.471,5.307S80.982,18.185,77.308,18.185Zm37.418-8.5h-11.29c-1.824,0-2.69,1.337-2.69,3.2V22c0,3-1.8,5.3-5.475,5.3H81.99a0.137,0.137,0,0,1-.136-0.139V25.334a0.136,0.136,0,0,1,.134-0.139H93.9c1.825,0,2.692-1.336,2.692-3.194v-9.12c0-3,1.8-5.3,5.471-5.3l12.667,0a0.137,0.137,0,0,1,.134.139V9.545A0.135,0.135,0,0,1,114.726,9.681ZM150.715,27.3V25.5l-0.594,1.8h-0.284l-0.594-1.8v1.8h-0.284V25.083h0.4l0.624,1.883,0.627-1.883H151V27.3h-0.285Zm-2.745-1.965V27.3h-0.276V25.333h-0.72v-0.25h1.708v0.25H147.97Z"></path>
		</svg>
