<svg xmlns:svg="http://www.w3.org/2000/svg" xmlns="http://www.w3.org/2000/svg" id="social-twitter" viewBox="0 0 64 64" width="100%" height="100%">
    <title>Twitter</title>
    <path fill="rgba(255,255,255,0.5)" d="M54,18.9c-1.4,0.7-2.9,1.1-4.5,1.3c3.6-2.4,3.4-4.9,3.4-4.9c-1.7,1-3.5,1.8-5.5,2.2c-3.3-3.5-8.8-3.7-12.3-0.4         c-2.3,2.1-3.2,5.3-2.5,8.3h-0.4c-10.7-0.5-17.4-9-17.4-9c-3.8,7.4,2.3,11.5,2.3,11.5c-1.3,0-2.5-0.3-3.6-1c0.1,7.1,6.8,8.6,6.8,8.6         c-1.2,0.3-2.4,0.4-3.6,0.2c1.2,5.4,7.7,6.1,7.7,6.1C21.2,45.3,12,45.4,12,45.4c11.5,7.3,26.7,3.9,34-7.6c2.5-3.9,3.8-8.5,3.8-13.2         c0-0.3,0-0.5,0-0.8s0-0.3,0-0.4v-0.1C51.6,22.2,53,20.7,54,18.9z"></path>
</svg>
