<svg xmlns:svg="http://www.w3.org/2000/svg" xmlns="http://www.w3.org/2000/svg" id="social-youtube" viewBox="0 0 64 64" width="100%" height="100%">
    <title>Youtube</title>
    <path fill="rgba(255,255,255,0.5)" d="M55.9,32a54.4,54.4,0,0,0-.5-8.3c-.6-4.3-1.9-5.9-2.7-6.8a5.9,5.9,0,0,0-2.9-1.2s-5.5-.4-16-.4H30.1c-10.5,0-16,.4-16,.4a5.9,5.9,0,0,0-2.9,1.2c-.8.9-2.1,2.5-2.7,6.8A54.5,54.5,0,0,0,8.1,32h0a54.5,54.5,0,0,0,.5,8.3c.6,4.3,1.9,5.9,2.7,6.8a5.9,5.9,0,0,0,2.9,1.2s5.5.4,16,.4h3.7c10.5,0,16-.4,16-.4a5.9,5.9,0,0,0,2.9-1.2c.8-.9,2.1-2.5,2.7-6.8a54.4,54.4,0,0,0,.5-8.3ZM27.1,40.9V23.2L40.8,32Z"></path>
</svg>
